<svg width="240" height="300" viewBox="0 0 240 300" fill="none" xmlns="http://www.w3.org/2000/svg">
<path d="M0 15V5H0.5V0.5H5V0H15V0.5H25V0H35V0.5H45V0H55V0.5H65V0H75V0.5H85V0H95V0.5H105V0H115V0.5H125V0H135V0.5H145V0H155V0.5H160C161.749 0.5 163.484 0.556461 165.205 0.667651L165.237 0.168692C168.763 0.39653 172.226 0.852755 175.613 1.52273L175.516 2.01322C178.95 2.69257 182.304 3.59308 185.564 4.69928L185.725 4.22581C189.05 5.3545 192.278 6.696 195.391 8.23408L195.169 8.68235C198.291 10.2248 201.297 11.9663 204.171 13.8903L204.449 13.4748C207.356 15.4206 210.128 17.5519 212.748 19.8518L212.418 20.2275C215.026 22.5166 217.483 24.9736 219.772 27.5818L220.148 27.2519C222.448 29.8723 224.579 32.6442 226.525 35.5507L226.11 35.8289C228.034 38.7026 229.775 41.7088 231.318 44.8307L231.766 44.6092C233.304 47.7222 234.645 50.9497 235.774 54.2754L235.301 54.4361C236.407 57.6956 237.307 61.0501 237.987 64.4841L238.477 64.3871C239.147 67.7736 239.603 71.2371 239.831 74.7627L239.332 74.795C239.444 76.5156 239.5 78.2512 239.5 80V85H240V95H239.5V105H240V115H239.5V125H240V135H239.5V145H240V155H239.5V165H240V175H239.5V185H240V195H239.5V205H240V215H239.5V225H240V235H239.5V245H240V255H239.5V265H240V275H239.5V285H240V295H239.5V299.5H235V300H225V299.5H215V300H205V299.5H195V300H185V299.5H175V300H165V299.5H155V300H145V299.5H135V300H125V299.5H115V300H105V299.5H95V300H85V299.5H75V300H65V299.5H55V300H45V299.5H35V300H25V299.5H15V300H5V299.5H0.5V295H0V285H0.5V275H0V265H0.5V255H0V245H0.5V235H0V225H0.5V215H0V205H0.5V195H0V185H0.5V175H0V165H0.5V155H0V145H0.5V135H0V125H0.5V115H0V105H0.5V95H0V85H0.5V75H0V65H0.5V55H0V45H0.5V35H0V25H0.5V15H0Z" stroke="#FDFDFD" stroke-linejoin="round" stroke-dasharray="10 10"/>
</svg>
