<svg width="240" height="300" viewBox="0 0 240 300" fill="none" xmlns="http://www.w3.org/2000/svg">
<path d="M225 0H235V0.5H239.5V5H240V15H239.5V25H240V35H239.5V45H240V55H239.5V65H240V75H239.5V85H240V95H239.5V105H240V115H239.5V125H240V135H239.5V145H240V155H239.5V165H240V175H239.5V185H240V195H239.5V205H240V215H239.5V225H240V235H239.5V245H240V255H239.5V265H240V275H239.5V285H240V295H239.5V299.5H235V300H225V299.5H215V300H205V299.5H195V300H185V299.5H175V300H165V299.5H155V300H145V299.5H135V300H125V299.5H115V300H105V299.5H95V300H85V299.5H75V300H65V299.5H55V300H45V299.5H35V300H25V299.5H15V300H5V299.5H0.5V295H0V285H0.5V275H0V265H0.5V255H0V245H0.5V235H0V225H0.5V215H0V205H0.5V195H0V185H0.5V175H0V165H0.5V155H0V145H0.5V135H0V125H0.5V115H0V105H0.5V95H0V85H0.5V80C0.5 78.2512 0.556461 76.5156 0.667651 74.795L0.168692 74.7627C0.396529 71.2371 0.852755 67.7736 1.52272 64.387L2.01322 64.4841C2.69257 61.05 3.59308 57.6956 4.69928 54.4361L4.22581 54.2754C5.3545 50.9497 6.696 47.7222 8.23408 44.6092L8.68235 44.8307C10.2248 41.7088 11.9663 38.7026 13.8902 35.8289L13.4748 35.5507C15.4206 32.6442 17.5519 29.8723 19.8517 27.2519L20.2275 27.5818C22.5166 24.9737 24.9736 22.5166 27.5818 20.2275L27.2519 19.8518C29.8723 17.552 32.6442 15.4206 35.5507 13.4748L35.8289 13.8903C38.7026 11.9663 41.7088 10.2248 44.8307 8.68235L44.6092 8.23408C47.7222 6.696 50.9497 5.35451 54.2754 4.22581L54.4361 4.69929C57.6956 3.59308 61.05 2.69257 64.4841 2.01322L64.387 1.52272C67.7736 0.852754 71.2371 0.396529 74.7627 0.168691L74.795 0.66765C76.5156 0.556461 78.2512 0.5 80 0.5H85V0H95V0.5H105V0H115V0.5H125V0H135V0.5H145V0H155V0.5H165V0H175V0.5H185V0H195V0.5H205V0H215V0.5H225V0Z" stroke="#FDFDFD" stroke-linejoin="round" stroke-dasharray="10 10"/>
</svg>
